<?xml version="1.0" encoding="iso-8859-1"?>
<!-- Generator: Adobe Illustrator 19.0.0, SVG Export Plug-In . SVG Version: 6.00 Build 0)  -->
<svg version="1.1" id="Layer_1" xmlns="http://www.w3.org/2000/svg" xmlns:xlink="http://www.w3.org/1999/xlink" x="0px" y="0px"
	 viewBox="0 0 496 496" style="enable-background:new 0 0 496 496;" xml:space="preserve">
<circle style="fill:#FFBC00;" cx="176.8" cy="248" r="176.8"/>
<path style="fill:#F7B208;" d="M176.8,71.2c97.6,0,176.8,79.2,176.8,176.8s-79.2,176.8-176.8,176.8"/>
<circle style="fill:#F20A41;" cx="319.2" cy="248" r="176.8"/>
<path style="fill:#E00040;" d="M319.2,424.8c-97.6,0-176.8-79.2-176.8-176.8S220.8,71.2,319.2,71.2"/>
<path style="fill:#F97803;" d="M248,85.6c-62.4,27.2-106.4,89.6-106.4,162.4s44,135.2,106.4,162.4c62.4-27.2,106.4-89.6,106.4-162.4
	S310.4,112.8,248,85.6z"/>
<path style="fill:#F76806;" d="M248,410.4c62.4-27.2,106.4-89.6,106.4-162.4S310.4,112.8,248,85.6"/>
<g>
</g>
<g>
</g>
<g>
</g>
<g>
</g>
<g>
</g>
<g>
</g>
<g>
</g>
<g>
</g>
<g>
</g>
<g>
</g>
<g>
</g>
<g>
</g>
<g>
</g>
<g>
</g>
<g>
</g>
</svg>
